<?xml version="1.0" encoding="utf-8"?>
<!-- Generator: Adobe Illustrator 21.0.1, SVG Export Plug-In . SVG Version: 6.00 Build 0)  -->
<svg version="1.1" id="Слой_1" xmlns="http://www.w3.org/2000/svg" xmlns:xlink="http://www.w3.org/1999/xlink" x="0px" y="0px"
	 viewBox="0 0 322 327" style="enable-background:new 0 0 322 327;" xml:space="preserve">
<style type="text/css">
	.st0{opacity:0.2;enable-background:new    ;}
</style>
<path id="rocket.svg" class="st0" d="M223.2,56.8l-24.1,6.7c-0.3,0.1-0.5,0.2-0.7,0.5l-17.1,20.7c-0.2,0.3-0.3,0.6-0.3,0.9
	c0,0.1,0,0.3,0.1,0.4c0.1,0.5,0.5,0.8,1,1l24.3,7.1c-0.3,4.8,0.9,9.5,3.5,13.5l-7.7,9.4c-0.5,0.6-0.4,1.5,0.1,2l7.3,7
	c0.6,0.6,1.5,0.5,2.1-0.1c0,0,0,0,0,0l8.5-9.3c2.2,0.8,7.5,2.2,15.7,0.7l8.7,23.9c0.3,0.8,1.1,1.2,1.9,0.9c0.2-0.1,0.4-0.2,0.5-0.3
	l19.4-18.5c0.2-0.2,0.4-0.5,0.4-0.8l4.4-24.4c5.6-4.9,11-10.3,15.9-15.9c30.4-34.3,34.9-61.1,34.9-74c0-2.2-0.1-4.5-0.5-6.7
	c-0.1-0.6-0.6-1-1.2-1.1c-1.5-0.3-37.5-5.8-84.4,41.2C231.4,46.4,227.2,51.5,223.2,56.8z M249.4,59c0-8.2,6.7-14.7,14.8-14.7
	c8.2,0,14.7,6.7,14.7,14.8c0,8.1-6.6,14.7-14.8,14.7C256,73.8,249.4,67.2,249.4,59C249.4,59,249.4,59,249.4,59L249.4,59z M202,131.7
	L30.1,304.2c-1,1-2.7,1-3.7,0c0,0,0,0,0,0l-1.9-1.9c-1-1-1-2.7,0-3.8L196.4,126c1-1,2.7-1,3.7,0c0,0,0,0,0,0l1.9,1.9
	C203,128.9,203,130.6,202,131.7L202,131.7z M199.5,153.6L27.7,326.2c-1,1-2.7,1-3.7,0c0,0,0,0,0,0l-1.9-1.9c-1-1-1-2.7,0-3.8
	L193.9,148c1-1,2.7-1,3.7,0c0,0,0,0,0,0l1.9,1.9C200.5,150.9,200.5,152.6,199.5,153.6L199.5,153.6z M178.2,135.1L6.4,307.7
	c-1,1-2.7,1-3.7,0c0,0,0,0,0,0l-1.9-1.9c-1-1-1-2.7,0-3.8l171.8-172.6c1-1,2.7-1,3.7,0c0,0,0,0,0,0l1.9,1.9
	C179.2,132.4,179.2,134,178.2,135.1L178.2,135.1z"/>
</svg>
