<svg xmlns="http://www.w3.org/2000/svg" width="18.844" height="18.85" viewBox="0 0 18.844 18.85">
  <metadata><?xpacket begin="﻿" id="W5M0MpCehiHzreSzNTczkc9d"?>
<x:xmpmeta xmlns:x="adobe:ns:meta/" x:xmptk="Adobe XMP Core 5.6-c138 79.159824, 2016/09/14-01:09:01        ">
   <rdf:RDF xmlns:rdf="http://www.w3.org/1999/02/22-rdf-syntax-ns#">
      <rdf:Description rdf:about=""/>
   </rdf:RDF>
</x:xmpmeta>
                                                                                                    
                                                                                                    
                                                                                                    
                                                                                                    
                                                                                                    
                                                                                                    
                                                                                                    
                                                                                                    
                                                                                                    
                                                                                                    
                                                                                                    
                                                                                                    
                                                                                                    
                                                                                                    
                                                                                                    
                                                                                                    
                                                                                                    
                                                                                                    
                                                                                                    
                                                                                                    
                           
<?xpacket end="w"?></metadata>
<defs>
    <style>
      .cls-1 {
        fill: #fffefe;
        fill-rule: evenodd;
      }
    </style>
  </defs>
  <path id="_" data-name="   " class="cls-1" d="M875.822,1593.33l-6.666,6.67a0.79,0.79,0,0,1-.565.23,0.772,0.772,0,0,1-.552-0.23l-4.445-4.45a0.807,0.807,0,0,1,0-1.11l1.118-1.11a0.777,0.777,0,0,1,1.1,0l2.775,2.78,5.009-5a0.779,0.779,0,0,1,1.105,0l1.117,1.1a0.781,0.781,0,0,1,.221.57,0.751,0.751,0,0,1-.221.55h0Zm-1.381-6.73a9.519,9.519,0,0,0-9.466,0,9.425,9.425,0,0,0-3.431,3.44,9.482,9.482,0,0,0,0,9.46,9.438,9.438,0,0,0,16.328,0,9.476,9.476,0,0,0,0-9.46A9.425,9.425,0,0,0,874.441,1586.6Z" transform="translate(-860.281 -1585.34)"/>
</svg>
