<?xml version="1.0" encoding="utf-8"?>
<!-- Generator: Adobe Illustrator 21.0.1, SVG Export Plug-In . SVG Version: 6.00 Build 0)  -->
<svg version="1.1" id="header" xmlns="http://www.w3.org/2000/svg" xmlns:xlink="http://www.w3.org/1999/xlink" x="0px" y="0px"
	 viewBox="0 0 1400 390" style="enable-background:new 0 0 1400 390;" xml:space="preserve">
<style type="text/css">
	.st0{opacity:8.000000e-02;}
	.st1{fill:#D91921;}
	.st2{fill:#C5171E;}
</style>
<g id="main">
	<g class="st0">
		<path d="M0.1,352c0,0,306.6,76.4,578.4,11c530-127.5,823.2,13,823.2,13V3H1.5L0.1,352z"/>
	</g>
	<g>
		<path class="st1" d="M0.1,345c0,0,306.6,76.4,578.4,11c530-127.5,823.2,13,823.2,13V-4H1.5L0.1,345z"/>
	</g>
</g>
<path id="inshadow" class="st2" d="M578.6,349C308.4,414,3.8,338.9,0.2,338l0,7c0,0,306.6,76.4,578.4,11
	c530-127.5,823.2,13,823.2,13v-7C1401.8,362,1108.6,221.5,578.6,349z"/>
</svg>
