<?xml version="1.0" encoding="utf-8"?>
<!-- Generator: Adobe Illustrator 21.0.1, SVG Export Plug-In . SVG Version: 6.00 Build 0)  -->
<svg version="1.1" id="Слой_1" xmlns="http://www.w3.org/2000/svg" xmlns:xlink="http://www.w3.org/1999/xlink" x="0px" y="0px"
	 width="200px" height="200px" viewBox="0 0 200 200" style="enable-background:new 0 0 200 200;" xml:space="preserve">
<style type="text/css">
	.st0{opacity:5.000000e-02;}
	.st1{fill:none;}
	.st2{enable-background:new    ;}
</style>
<g class="st0">
	<path class="st1" d="M103.7,129.2c-1,0.6-3,2.3-3.9,4.1c-0.4,0.9-0.4,1.7,0.2,2.4c0.6,0.7,1.9,2.3,2.1,3.1l0,0c0,0-3.4,3.4-3.9,3.9
		c-0.5,0.4-0.8,0.7-1.7,0c-0.9-0.6-1.9-1.6-2.4-2.2c-0.5-0.6-1.1-0.8-2.1,0.1c-1.1,0.9-2.7,2.4-3.5,3.8c-0.7,1.5-0.4,1.8,0.6,2.9
		l9.6,9.6c0.4,0.4,1,0.8,1.8,0.3c0.8-0.5,3.3-2.7,4-4.5c0.3-0.8,0.4-1.3-0.5-2.2c-0.9-0.9-2.5-2.5-2.9-3.3c0.7-0.8,2.5-2.6,2.9-2.9
		c0.4-0.3,0.9-0.7,1.8,0.2c1,0.9,2.3,2.2,2.7,2.8c0.4,0.5,1.2,0.7,2.2-0.1c1-0.9,3.4-2.9,3.6-4.6c0.1-1.1-0.2-1.4-0.9-2.2
		c-0.7-0.9-4.2-5.2-5-6.2c-0.8-1-2.4-3-2.8-3.6C105.4,129.8,104.7,128.6,103.7,129.2z"/>
	<path class="st1" d="M124.7,106.6c-2.3-0.1-4.5,0.5-11.6,7.6c-4.8,4.8-7.2,8.1-7,10.8c0.2,2.7,1.8,5,5.3,8.4c3.5,3.5,7,5.8,9.7,5.4
		c2.7-0.4,5.5-2.8,9.8-7.1c4.3-4.3,7-7.4,7.3-10.5c0.3-3.1-2.4-6.3-5.4-9.4C129.7,108.6,127,106.7,124.7,106.6L124.7,106.6z
		 M129.1,117.1c1.2,1.6,2.1,3.5,1.8,4.7c-0.3,1.3-0.8,2.2-4.6,5.9c-3.8,3.8-4.9,4.4-5.7,4.6c-0.8,0.2-2.5-0.6-4.5-2.9
		c-2-2.3-3.2-4.4-2.8-6c0.4-1.6,2-3.3,4.5-5.8l0,0c2.5-2.5,4.5-4.8,6.4-4.8C126.1,113,127.9,115.5,129.1,117.1z"/>
	<path class="st1" d="M142,90.9l-12,12l0,0c-0.7,0.7-0.8,1.9-0.6,2.6c0.2,0.7,1.3,2.2,2.4,2.3c0.5,0.1,0.9-0.2,1.5-0.8l2.1-2.1
		c0.4-0.4,0.9-0.6,2,0.2c1.7,1.4,6.2,6,6.9,6.7c0.7,0.7,1.2,0.8,2,0.2c0.8-0.5,2.6-2.5,2.9-3.6c0.2-1.1,0.2-1.4-0.6-2.4
		c-0.8-1.1-5.1-6.6-5.9-8.3c0.8-0.8,2.1-2.1,2.5-2.5c0.4-0.4,0.6-1.1,0.7-1.6c0.1-0.6,0.1-1.3-1-2.4C143.6,90,142.9,90.1,142,90.9z"
		/>
	<g>
		<path class="st2" d="M117.8,117.7L117.8,117.7c-2.6,2.6-4.2,4.2-4.5,5.8c-0.4,1.6,0.9,3.7,2.8,6c2,2.3,3.7,3.1,4.5,2.9
			c0.8-0.2,1.9-0.8,5.7-4.6c3.8-3.8,4.2-4.7,4.6-5.9c0.3-1.3-0.6-3.1-1.8-4.7c-1.2-1.6-3-4.1-4.9-4.1
			C122.3,112.9,120.3,115.2,117.8,117.7z"/>
		<path class="st2" d="M130.4,67.1c-8-0.5-15.9,1.9-41,27c-16.9,16.9-25.4,28.6-24.6,38v0c0.8,9.4,6.4,17.5,18.5,29.7
			c12.2,12.2,24.7,20.5,34.3,19c9.6-1.5,19.5-9.9,34.7-25c15.1-15.1,24.8-26.1,25.8-37.1c1-11-8.3-22.3-19.2-33.4
			C148.2,74.3,138.4,67.5,130.4,67.1z M105.8,130.5c0.5,0.6,2,2.6,2.8,3.6c0.8,1,4.3,5.3,5,6.2c0.7,0.9,1,1.1,0.9,2.2
			c-0.2,1.8-2.6,3.8-3.6,4.6c-1,0.9-1.8,0.7-2.2,0.1c-0.4-0.5-1.8-1.9-2.7-2.8c-1-0.9-1.4-0.5-1.8-0.2c-0.4,0.3-2.2,2.1-2.9,2.9
			c0.4,0.8,2,2.4,2.9,3.3c0.9,0.9,0.8,1.4,0.5,2.2c-0.7,1.9-3.2,4-4,4.5c-0.8,0.5-1.4,0.2-1.8-0.3l-9.6-9.6c-1-1-1.3-1.4-0.6-2.9
			c0.7-1.5,2.4-3,3.5-3.8c1.1-0.9,1.6-0.6,2.1-0.1c0.5,0.6,1.5,1.5,2.4,2.2c0.9,0.6,1.2,0.4,1.7,0c0.5-0.4,3.9-3.9,3.9-3.9l0,0
			c-0.3-0.8-1.5-2.4-2.1-3.1c-0.6-0.7-0.7-1.5-0.2-2.4c0.8-1.8,2.9-3.5,3.9-4.1C104.7,128.6,105.4,129.8,105.8,130.5z M138.2,121.2
			c-0.3,3.1-3,6.2-7.3,10.5c-4.3,4.3-7.1,6.7-9.8,7.1c-2.7,0.4-6.2-1.9-9.7-5.4c-3.5-3.5-5-5.7-5.3-8.4c-0.2-2.7,2.2-6,7-10.8
			c7.1-7.1,9.3-7.8,11.6-7.6l0,0c2.3,0.1,5,2,8.1,5.2C135.9,114.9,138.5,118.1,138.2,121.2z M145.8,93.6c-0.1,0.6-0.3,1.2-0.7,1.6
			c-0.4,0.4-1.7,1.8-2.5,2.5c0.7,1.8,5,7.3,5.9,8.3c0.8,1.1,0.8,1.3,0.6,2.4c-0.2,1.1-2.1,3.1-2.9,3.6c-0.8,0.5-1.3,0.5-2-0.2
			c-0.7-0.7-5.2-5.3-6.9-6.7c-1-0.9-1.6-0.6-2-0.2l-2.1,2.1c-0.6,0.6-1,0.9-1.5,0.8c-1.1-0.2-2.2-1.6-2.4-2.3
			c-0.2-0.7-0.1-1.9,0.6-2.6l0,0l12-12c0.8-0.8,1.5-0.9,2.7,0.3C146,92.3,145.9,93,145.8,93.6z"/>
	</g>
</g>
<g class="st0">
	<path class="st1" d="M40.7,51c-0.5,0.3-1.7,1.3-2.1,2.3c-0.2,0.5-0.2,0.9,0.1,1.3c0.3,0.4,1,1.3,1.2,1.7l0,0c0,0-1.8,1.9-2.1,2.1
		c-0.3,0.2-0.5,0.4-1,0c-0.5-0.3-1-0.9-1.3-1.2c-0.3-0.3-0.6-0.4-1.2,0c-0.6,0.5-1.5,1.3-1.9,2.1c-0.4,0.8-0.2,1,0.3,1.6l5.3,5.3
		c0.2,0.2,0.5,0.4,1,0.1c0.5-0.3,1.8-1.5,2.2-2.5c0.2-0.4,0.2-0.7-0.3-1.2c-0.5-0.5-1.4-1.4-1.6-1.8c0.4-0.4,1.4-1.4,1.6-1.6
		c0.2-0.2,0.5-0.4,1,0.1c0.5,0.5,1.3,1.2,1.5,1.5c0.2,0.3,0.6,0.4,1.2-0.1c0.6-0.5,1.9-1.6,2-2.6c0.1-0.6-0.1-0.7-0.5-1.2
		c-0.4-0.5-2.3-2.9-2.7-3.4c-0.4-0.6-1.3-1.6-1.6-2C41.6,51.3,41.2,50.7,40.7,51z"/>
	<path class="st1" d="M52.2,38.6c-1.2-0.1-2.5,0.3-6.4,4.2c-2.6,2.6-3.9,4.5-3.8,5.9c0.1,1.5,1,2.7,2.9,4.6c1.9,1.9,3.8,3.2,5.3,3
		c1.5-0.2,3-1.5,5.4-3.9c2.4-2.4,3.9-4.1,4-5.8c0.2-1.7-1.3-3.5-3-5.2C55,39.7,53.5,38.6,52.2,38.6L52.2,38.6z M54.6,44.3
		c0.7,0.9,1.2,1.9,1,2.6c-0.2,0.7-0.4,1.2-2.5,3.3c-2.1,2.1-2.7,2.4-3.1,2.5c-0.5,0.1-1.4-0.3-2.5-1.6c-1.1-1.3-1.8-2.4-1.6-3.3
		c0.2-0.9,1.1-1.8,2.5-3.2l0,0c1.4-1.4,2.5-2.7,3.5-2.6C53,42.1,54,43.5,54.6,44.3z"/>
	<path class="st1" d="M61.7,29.9l-6.6,6.6l0,0c-0.4,0.4-0.5,1-0.3,1.4c0.1,0.4,0.7,1.2,1.3,1.3c0.3,0,0.5-0.1,0.8-0.5l1.1-1.1
		c0.2-0.2,0.5-0.3,1.1,0.1c0.9,0.8,3.4,3.3,3.8,3.7c0.4,0.4,0.7,0.4,1.1,0.1c0.4-0.3,1.4-1.4,1.6-2c0.1-0.6,0.1-0.7-0.3-1.3
		c-0.5-0.6-2.8-3.6-3.2-4.6c0.4-0.4,1.1-1.2,1.4-1.4c0.2-0.2,0.3-0.6,0.4-0.9c0.1-0.3,0.1-0.7-0.6-1.3
		C62.6,29.4,62.2,29.5,61.7,29.9z"/>
	<g>
		<path class="st2" d="M48.4,44.7L48.4,44.7c-1.4,1.4-2.3,2.3-2.5,3.2c-0.2,0.9,0.5,2,1.6,3.3c1.1,1.3,2,1.7,2.5,1.6
			c0.5-0.1,1-0.5,3.1-2.5c2.1-2.1,2.3-2.6,2.5-3.3c0.2-0.7-0.3-1.7-1-2.6c-0.7-0.9-1.6-2.2-2.7-2.3C50.9,42,49.8,43.3,48.4,44.7z"/>
		<path class="st2" d="M55.4,16.8c-4.4-0.2-8.7,1-22.5,14.8C23.5,41,18.9,47.4,19.3,52.6v0c0.4,5.2,3.5,9.6,10.2,16.3
			c6.7,6.7,13.5,11.3,18.8,10.4c5.3-0.8,10.7-5.4,19.1-13.7c8.3-8.3,13.6-14.3,14.2-20.4c0.5-6.1-4.6-12.3-10.5-18.3
			C65.1,20.8,59.7,17.1,55.4,16.8z M41.8,51.7c0.2,0.3,1.1,1.4,1.6,2c0.4,0.6,2.4,2.9,2.7,3.4c0.4,0.5,0.6,0.6,0.5,1.2
			c-0.1,1-1.4,2.1-2,2.6c-0.6,0.5-1,0.4-1.2,0.1c-0.2-0.3-1-1-1.5-1.5c-0.5-0.5-0.8-0.3-1-0.1c-0.2,0.2-1.2,1.2-1.6,1.6
			c0.2,0.4,1.1,1.3,1.6,1.8c0.5,0.5,0.4,0.8,0.3,1.2c-0.4,1-1.7,2.2-2.2,2.5c-0.5,0.3-0.8,0.1-1-0.1L32.7,61
			c-0.6-0.6-0.7-0.8-0.3-1.6c0.4-0.8,1.3-1.6,1.9-2.1c0.6-0.5,0.9-0.3,1.2,0c0.3,0.3,0.8,0.8,1.3,1.2c0.5,0.3,0.7,0.2,1,0
			c0.3-0.2,2.1-2.1,2.1-2.1l0,0c-0.1-0.4-0.8-1.3-1.2-1.7c-0.3-0.4-0.4-0.8-0.1-1.3c0.5-1,1.6-1.9,2.1-2.3
			C41.2,50.7,41.6,51.3,41.8,51.7z M59.7,46.6c-0.2,1.7-1.7,3.4-4,5.8c-2.4,2.4-3.9,3.7-5.4,3.9c-1.5,0.2-3.4-1.1-5.3-3
			c-1.9-1.9-2.8-3.2-2.9-4.6c-0.1-1.5,1.2-3.3,3.8-5.9c3.9-3.9,5.1-4.3,6.4-4.2l0,0c1.2,0.1,2.8,1.1,4.5,2.8
			C58.4,43.1,59.8,44.9,59.7,46.6z M63.8,31.4c-0.1,0.3-0.2,0.7-0.4,0.9c-0.2,0.2-0.9,1-1.4,1.4c0.4,1,2.8,4,3.2,4.6
			c0.5,0.6,0.5,0.7,0.3,1.3c-0.1,0.6-1.1,1.7-1.6,2c-0.4,0.3-0.7,0.3-1.1-0.1c-0.4-0.4-2.9-2.9-3.8-3.7c-0.6-0.5-0.9-0.3-1.1-0.1
			L57,38.8c-0.3,0.3-0.6,0.5-0.8,0.5c-0.6-0.1-1.2-0.9-1.3-1.3c-0.1-0.4-0.1-1,0.3-1.4l0,0l6.6-6.6c0.5-0.5,0.8-0.5,1.5,0.1
			C63.9,30.7,63.9,31.1,63.8,31.4z"/>
	</g>
</g>
</svg>
