<svg xmlns="http://www.w3.org/2000/svg" width="18.844" height="18.85" viewBox="0 0 18.844 18.85">
    <defs>
        <style>
            .cls-1{fill:#fffefe;fill-rule:evenodd}
        </style>
    </defs>
    <path id="_" data-name="   " class="cls-1" d="M875.822 1593.33l-6.666 6.67a.79.79 0 0 1-.565.23.772.772 0 0 1-.552-.23l-4.445-4.45a.807.807 0 0 1 0-1.11l1.118-1.11a.777.777 0 0 1 1.1 0l2.775 2.78 5.009-5a.779.779 0 0 1 1.105 0l1.117 1.1a.781.781 0 0 1 .221.57.751.751 0 0 1-.221.55zm-1.381-6.73a9.519 9.519 0 0 0-9.466 0 9.425 9.425 0 0 0-3.431 3.44 9.482 9.482 0 0 0 0 9.46 9.438 9.438 0 0 0 16.328 0 9.476 9.476 0 0 0 0-9.46 9.425 9.425 0 0 0-3.431-3.44z" transform="translate(-860.281 -1585.34)"/>
</svg>
