<svg xmlns="http://www.w3.org/2000/svg" xmlns:xlink="http://www.w3.org/1999/xlink" width="262.695" height="112.767">
    <defs>
        <linearGradient id="e">
            <stop offset="0" stop-color="#b3b3b3"/>
            <stop offset="1" stop-color="#fff"/>
        </linearGradient>
        <clipPath id="a">
            <path d="M162.413 729.135h85.971v-12.726h-85.971v12.726z"/>
        </clipPath>
        <clipPath id="b">
            <path d="M162.413 729.135h85.971v-12.726h-85.971v12.726z"/>
        </clipPath>
        <radialGradient fx="0" fy="0" cx="0" cy="0" r="1" gradientUnits="userSpaceOnUse" gradientTransform="matrix(26.08788 0 0 -26.08788 220.514 784.722)" spreadMethod="pad" id="c">
            <stop offset="0" stop-color="#f9b29e"/>
            <stop offset=".65" stop-color="#ed1c24"/>
            <stop offset=".65" stop-color="#ed1c24"/>
            <stop offset="1" stop-color="#ed1c24"/>
        </radialGradient>
        <radialGradient fx="0" fy="0" cx="0" cy="0" r="1" gradientUnits="userSpaceOnUse" gradientTransform="matrix(50.8129 0 0 -50.81288 219.473 780.646)" spreadMethod="pad" id="d">
            <stop offset="0" stop-color="#fff"/>
            <stop offset=".936" stop-color="#231f20"/>
            <stop offset=".936" stop-color="#231f20"/>
            <stop offset="1" stop-color="#231f20"/>
        </radialGradient>
        <radialGradient xlink:href="#d" id="i" gradientUnits="userSpaceOnUse" gradientTransform="matrix(50.8129 0 0 -50.81288 219.473 780.646)" spreadMethod="pad" cx="0" cy="0" fx="0" fy="0" r="1"/>
        <radialGradient xlink:href="#c" id="h" gradientUnits="userSpaceOnUse" gradientTransform="matrix(26.08788 0 0 -26.08788 220.514 784.722)" spreadMethod="pad" cx="0" cy="0" fx="0" fy="0" r="1"/>
        <radialGradient xlink:href="#e" id="f" gradientUnits="userSpaceOnUse" gradientTransform="matrix(.00235 -.30357 .94214 .0073 -485.403 783.313)" cx="216.371" cy="733.368" fx="216.371" fy="733.368" r="41.791"/>
        <filter id="g" x="-.013" width="1.027" y="-.109" height="1.219">
            <feGaussianBlur stdDeviation=".469"/>
        </filter>
    </defs>
    <path d="M247.174 722.808c0-2.843-18.71-5.148-41.792-5.148-23.08 0-41.79 2.305-41.79 5.148 0 2.843 18.71 5.148 41.79 5.148 23.081 0 41.792-2.304 41.792-5.148" fill="url(#f)" filter="url(#g)" transform="matrix(1.25 0 0 -1.25 -202.96 1009.842)"/>
    <path d="M168.66 800.261c-4.873-5.781-6.292-13.487-6.292-27.277 0-13.803 2.332-25.565 8.626-30.137 6.285-4.559 16.636-5.475 33.781-5.475 17.139 0 28.806.707 35.607 6.388 6.793 5.686 7.907 17.351 8.011 29.727.105 12.368-1.62 21.708-5.884 26.471-4.257 4.769-10.042 7.916-38.445 7.916-19.171 0-30.538-1.83-35.404-7.613" fill="url(#h)" transform="matrix(1.25 0 0 -1.25 -202.96 1009.842)"/>
    <path d="M168.66 800.261c-4.873-5.78-6.292-13.487-6.292-27.277 0-13.803 2.332-25.565 8.626-30.137 6.285-4.559 16.636-5.475 33.782-5.475 17.138 0 28.805.707 35.606 6.388 6.793 5.686 7.907 17.351 8.011 29.727.104 12.368-1.62 21.709-5.884 26.471-4.257 4.769-10.042 7.916-38.445 7.916-19.171 0-30.538-1.83-35.404-7.613" opacity=".2" fill="url(#i)" transform="matrix(1.25 0 0 -1.25 -202.96 1009.842)"/>
    <path d="M29.472 40.76s-4.801.044-5.483-.02c-.685-.066-1.068-.106-1.26-1.196-.19-1.086-.19-2.452-.17-3.22.023-.767-.17-1.324-1.557-1.472-1.388-.15-3.608-.278-5.165.276-1.556.554-1.6 1.002-1.6 2.454v13.632c0 .575.107 1.238 1.089 1.451.982.214 4.187.432 6.038-.36.745-.322 1.218-.666 1.194-1.922-.019-1.259.041-3.564.3-4.375 1.023-.041 3.561-.064 4.095.022.536.085 1.11.15 1.174 1.43.066 1.28.042 3.2-.021 3.883-.064.681.32 1.342 1.642 1.45 1.323.106 4.433.341 5.825-.748.875-.68.833-1.085.96-2.217.128-1.131.704-6.638.876-7.938.17-1.298.43-3.798.555-4.563.125-.77.51-2.072-.597-2.345-1.113-.28-3.775-.488-5.634.188-.937.343-1.45.942-1.537 1.878-.085.94-.34 2.966-.724 3.712" fill="#fff"/>
    <path d="M68.186 33.806c1.509 1.686 2.12 4.992 2.083 9.37-.037 4.383-.432 8.512-2.837 10.526-2.407 2.012-6.538 2.262-12.606 2.262-6.071 0-9.735-.326-11.961-1.938-2.228-1.62-3.053-5.784-3.053-10.67 0-4.883.502-7.612 2.228-9.658 1.722-2.047 5.747-2.696 12.535-2.696 10.056 0 12.102 1.115 13.611 2.804m-12.716 2.98c-3.625 0-5.961.033-7.323.898-1.366.86-2.013 3.23-2.227 6.245-.215 3.02.43 4.78 1.147 5.245.72.465 1.94.757 7.29.757 5.353 0 6.285-.292 7.435-.972 1.15-.683 1.797-2.656 2.084-4.633.288-1.975.755-4.994-.537-6.393-1.294-1.401-4.347-1.147-7.87-1.147" fill="#fff"/>
    <path d="M74.557 34.946c-1.025 0-1.914.718-2.256 1.403-.343.684-.627 2.47.032 3.35.31.411.786.48 1.679.48h2.905c.547 0 1.107.209 1.231 1.539.206 2.188.139 8.688.105 9.646-.035.957.304 1.401 1.229 1.574.921.17 3.627.103 4.585-.55.957-.647 1.094-.82 1.265-2.153.17-1.336 1.026-8.242 1.744-10.02 1.093 0 2.977-.036 3.557-.036.584 0 1.198-.308 1.675-.65.48-.343.991-.788.991-2.464 0-1.674-.546-2.119-1.74-2.119H74.556" fill="#fff"/>
    <path d="M210.946 48.532a3.773 3.773 0 0 1-3.769 3.777h-8.111a3.773 3.773 0 0 1-3.769-3.777v-5.686a3.773 3.773 0 0 1 3.769-3.777h8.111a3.773 3.773 0 0 1 3.769 3.777v5.686zm4.794-8.151c-.49-1.544-1.31-2.805-2.432-3.745-1.096-.92-2.522-1.582-4.237-1.962-1.616-.36-3.599-.55-5.893-.568-1.637-.013-3.032.062-4.147.222-1.15.165-2.078.378-2.831.646-.319.114-.737.323-.998.445l.073-9.927h-5.68v31.25h5.721v-1.059c.221.136.456.26.711.361.723.287 1.651.557 2.763.8 1.131.25 2.548.38 4.213.393 2.287.017 4.27-.141 5.898-.47 1.72-.349 3.154-.98 4.265-1.873 1.137-.916 1.976-2.157 2.491-3.692.485-1.445.739-3.263.756-5.403.015-2.14-.21-3.963-.673-5.418" fill="#231f20"/>
    <path d="M225.234 25.529h-5.723v5.721h5.723v-5.721z" fill="#231f20"/>
    <path d="M234.401 25.661h-5.721v30.954h5.721V25.661z" fill="#231f20"/>
    <path d="M225.234 34.341h-5.723v22.275h5.723V34.341z" fill="#231f20"/>
    <path d="M181.977 48.496a3.774 3.774 0 0 1-3.768 3.778h-8.112a3.774 3.774 0 0 1-3.768-3.778V42.81a3.773 3.773 0 0 1 3.768-3.776h8.112a3.773 3.773 0 0 1 3.768 3.776v5.686zm4.825-8.262c-.493-1.532-1.313-2.774-2.442-3.695-1.098-.895-2.521-1.532-4.238-1.897-1.616-.338-3.595-.522-5.88-.54-2.288-.017-4.272.135-5.892.452-1.72.336-3.154.953-4.266 1.83-1.142.903-1.98 2.133-2.498 3.658-.485 1.432-.739 3.245-.756 5.388-.015 2.174.209 4.021.67 5.491.491 1.564 1.31 2.836 2.432 3.779 1.098.924 2.524 1.584 4.24 1.966 1.618.36 3.602.551 5.893.568 2.29.018 4.276-.143 5.901-.48 1.72-.354 3.156-.994 4.268-1.9 1.136-.925 1.973-2.184 2.487-3.74.486-1.467.739-3.31.755-5.482.016-2.14-.21-3.958-.674-5.398" fill="#231f20"/>
    <path d="M242.44 43.186V42.8a3.772 3.772 0 0 1 3.768-3.775h7.193a3.77 3.77 0 0 1 3.767 3.775v.386H242.44zm20.238 4.416v-.022h.017l-.017-.021-.028-2.014a26.233 26.233 0 0 0-.15-3.07c-.115-1.028-.338-1.945-.668-2.728a9.143 9.143 0 0 0-1.359-2.245c-.595-.736-1.378-1.368-2.328-1.883-.914-.494-2.017-.879-3.278-1.14-1.229-.255-2.687-.389-4.34-.402-2.291-.018-4.275.144-5.902.484-1.73.36-3.172 1.029-4.287 1.983-1.13.967-1.963 2.277-2.475 3.895-.48 1.525-.733 3.458-.75 5.747-.016 2.025.212 3.749.68 5.126.498 1.464 1.324 2.655 2.453 3.542 1.097.863 2.519 1.477 4.229 1.83 1.612.33 3.59.507 5.877.526 2.13.015 3.954-.084 5.425-.294 1.539-.22 2.816-.594 3.796-1.115 1.07-.566 1.923-1.309 2.34-2.294.647-1.532.755-4.326.755-4.326l-5.563-.015a3.768 3.768 0 0 1-3.704 3.096h-7.193a3.773 3.773 0 0 1-3.768-3.776v-.906h14.728v.017l5.51.005z" fill="#231f20"/>
    <path d="M158.468 41.594a11.965 11.965 0 0 0-.45-2.55 6.88 6.88 0 0 0-1.08-2.16c-.488-.645-3.227-2.866-9.41-2.866-5.968 0-9.046 2.297-9.548 2.793-.113-.15-2.307-2.738-8.22-2.738-4.855 0-6.304 1.35-6.777 1.687l.005-1.461h-5.495l-.02 22.495h5.465l-.01-13.72c.002-.271.022-.529.053-.779.027-.34.099-.666.21-.975l.031-.107c.056-.158.131-.305.216-.447a3.764 3.764 0 0 1 3.297-1.95l4.75.045c2.082 0 3.77 1.69 3.77 3.777l.01 14.156h5.453l.015-14.201a3.771 3.771 0 0 1 3.768-3.777l4.751.045c2.081 0 3.77 1.69 3.77 3.777l.038 14.156h5.492l.004-12.336a36.347 36.347 0 0 0-.088-2.864" fill="#231f20"/>
</svg>
