<svg id="Слой_1" xmlns="http://www.w3.org/2000/svg" width="200" height="200" viewBox="0 0 200 200">
    <style>
        .st0{opacity:5e-2}.st1{fill:none}.st2{enable-background:new}
    </style>
    <g class="st0">
        <path class="st1" d="M103.7 129.2c-1 .6-3 2.3-3.9 4.1-.4.9-.4 1.7.2 2.4.6.7 1.9 2.3 2.1 3.1l-3.9 3.9c-.5.4-.8.7-1.7 0-.9-.6-1.9-1.6-2.4-2.2-.5-.6-1.1-.8-2.1.1-1.1.9-2.7 2.4-3.5 3.8-.7 1.5-.4 1.8.6 2.9l9.6 9.6c.4.4 1 .8 1.8.3s3.3-2.7 4-4.5c.3-.8.4-1.3-.5-2.2-.9-.9-2.5-2.5-2.9-3.3.7-.8 2.5-2.6 2.9-2.9.4-.3.9-.7 1.8.2 1 .9 2.3 2.2 2.7 2.8.4.5 1.2.7 2.2-.1 1-.9 3.4-2.9 3.6-4.6.1-1.1-.2-1.4-.9-2.2-.7-.9-4.2-5.2-5-6.2-.8-1-2.4-3-2.8-3.6-.2-.8-.9-2-1.9-1.4z"/>
        <path class="st1" d="M124.7 106.6c-2.3-.1-4.5.5-11.6 7.6-4.8 4.8-7.2 8.1-7 10.8.2 2.7 1.8 5 5.3 8.4 3.5 3.5 7 5.8 9.7 5.4 2.7-.4 5.5-2.8 9.8-7.1 4.3-4.3 7-7.4 7.3-10.5.3-3.1-2.4-6.3-5.4-9.4-3.1-3.2-5.8-5.1-8.1-5.2zm4.4 10.5c1.2 1.6 2.1 3.5 1.8 4.7-.3 1.3-.8 2.2-4.6 5.9-3.8 3.8-4.9 4.4-5.7 4.6-.8.2-2.5-.6-4.5-2.9s-3.2-4.4-2.8-6c.4-1.6 2-3.3 4.5-5.8s4.5-4.8 6.4-4.8c1.9.2 3.7 2.7 4.9 4.3z"/>
        <path class="st1" d="M142 90.9l-12 12c-.7.7-.8 1.9-.6 2.6.2.7 1.3 2.2 2.4 2.3.5.1.9-.2 1.5-.8l2.1-2.1c.4-.4.9-.6 2 .2 1.7 1.4 6.2 6 6.9 6.7.7.7 1.2.8 2 .2.8-.5 2.6-2.5 2.9-3.6.2-1.1.2-1.4-.6-2.4-.8-1.1-5.1-6.6-5.9-8.3l2.5-2.5c.4-.4.6-1.1.7-1.6.1-.6.1-1.3-1-2.4-1.3-1.2-2-1.1-2.9-.3z"/>
        <path class="st2" d="M117.8 117.7c-2.6 2.6-4.2 4.2-4.5 5.8-.4 1.6.9 3.7 2.8 6 2 2.3 3.7 3.1 4.5 2.9.8-.2 1.9-.8 5.7-4.6 3.8-3.8 4.2-4.7 4.6-5.9.3-1.3-.6-3.1-1.8-4.7-1.2-1.6-3-4.1-4.9-4.1-1.9-.2-3.9 2.1-6.4 4.6z"/>
        <path class="st2" d="M130.4 67.1c-8-.5-15.9 1.9-41 27-16.9 16.9-25.4 28.6-24.6 38 .8 9.4 6.4 17.5 18.5 29.7 12.2 12.2 24.7 20.5 34.3 19 9.6-1.5 19.5-9.9 34.7-25 15.1-15.1 24.8-26.1 25.8-37.1s-8.3-22.3-19.2-33.4c-10.7-11-20.5-17.8-28.5-18.2zm-24.6 63.4c.5.6 2 2.6 2.8 3.6.8 1 4.3 5.3 5 6.2.7.9 1 1.1.9 2.2-.2 1.8-2.6 3.8-3.6 4.6-1 .9-1.8.7-2.2.1-.4-.5-1.8-1.9-2.7-2.8-1-.9-1.4-.5-1.8-.2-.4.3-2.2 2.1-2.9 2.9.4.8 2 2.4 2.9 3.3.9.9.8 1.4.5 2.2-.7 1.9-3.2 4-4 4.5-.8.5-1.4.2-1.8-.3l-9.6-9.6c-1-1-1.3-1.4-.6-2.9.7-1.5 2.4-3 3.5-3.8 1.1-.9 1.6-.6 2.1-.1.5.6 1.5 1.5 2.4 2.2.9.6 1.2.4 1.7 0s3.9-3.9 3.9-3.9c-.3-.8-1.5-2.4-2.1-3.1-.6-.7-.7-1.5-.2-2.4.8-1.8 2.9-3.5 3.9-4.1.8-.5 1.5.7 1.9 1.4zm32.4-9.3c-.3 3.1-3 6.2-7.3 10.5s-7.1 6.7-9.8 7.1c-2.7.4-6.2-1.9-9.7-5.4-3.5-3.5-5-5.7-5.3-8.4-.2-2.7 2.2-6 7-10.8 7.1-7.1 9.3-7.8 11.6-7.6 2.3.1 5 2 8.1 5.2 3.1 3.1 5.7 6.3 5.4 9.4zm7.6-27.6c-.1.6-.3 1.2-.7 1.6-.4.4-1.7 1.8-2.5 2.5.7 1.8 5 7.3 5.9 8.3.8 1.1.8 1.3.6 2.4-.2 1.1-2.1 3.1-2.9 3.6-.8.5-1.3.5-2-.2s-5.2-5.3-6.9-6.7c-1-.9-1.6-.6-2-.2l-2.1 2.1c-.6.6-1 .9-1.5.8-1.1-.2-2.2-1.6-2.4-2.3-.2-.7-.1-1.9.6-2.6l12-12c.8-.8 1.5-.9 2.7.3 1.4 1.1 1.3 1.8 1.2 2.4z"/>
    </g>
    <g class="st0">
        <path class="st1" d="M40.7 51c-.5.3-1.7 1.3-2.1 2.3-.2.5-.2.9.1 1.3.3.4 1 1.3 1.2 1.7 0 0-1.8 1.9-2.1 2.1-.3.2-.5.4-1 0-.5-.3-1-.9-1.3-1.2-.3-.3-.6-.4-1.2 0-.6.5-1.5 1.3-1.9 2.1-.4.8-.2 1 .3 1.6l5.3 5.3c.2.2.5.4 1 .1.5-.3 1.8-1.5 2.2-2.5.2-.4.2-.7-.3-1.2s-1.4-1.4-1.6-1.8l1.6-1.6c.2-.2.5-.4 1 .1s1.3 1.2 1.5 1.5c.2.3.6.4 1.2-.1s1.9-1.6 2-2.6c.1-.6-.1-.7-.5-1.2s-2.3-2.9-2.7-3.4c-.4-.6-1.3-1.6-1.6-2-.2-.2-.6-.8-1.1-.5z"/>
        <path class="st1" d="M52.2 38.6c-1.2-.1-2.5.3-6.4 4.2-2.6 2.6-3.9 4.5-3.8 5.9.1 1.5 1 2.7 2.9 4.6 1.9 1.9 3.8 3.2 5.3 3 1.5-.2 3-1.5 5.4-3.9 2.4-2.4 3.9-4.1 4-5.8.2-1.7-1.3-3.5-3-5.2-1.6-1.7-3.1-2.8-4.4-2.8zm2.4 5.7c.7.9 1.2 1.9 1 2.6-.2.7-.4 1.2-2.5 3.3-2.1 2.1-2.7 2.4-3.1 2.5-.5.1-1.4-.3-2.5-1.6s-1.8-2.4-1.6-3.3c.2-.9 1.1-1.8 2.5-3.2 1.4-1.4 2.5-2.7 3.5-2.6 1.1.1 2.1 1.5 2.7 2.3z"/>
        <path class="st1" d="M61.7 29.9l-6.6 6.6c-.4.4-.5 1-.3 1.4.1.4.7 1.2 1.3 1.3.3 0 .5-.1.8-.5l1.1-1.1c.2-.2.5-.3 1.1.1.9.8 3.4 3.3 3.8 3.7.4.4.7.4 1.1.1.4-.3 1.4-1.4 1.6-2 .1-.6.1-.7-.3-1.3-.5-.6-2.8-3.6-3.2-4.6.4-.4 1.1-1.2 1.4-1.4.2-.2.3-.6.4-.9.1-.3.1-.7-.6-1.3-.7-.6-1.1-.5-1.6-.1z"/>
        <path class="st2" d="M48.4 44.7c-1.4 1.4-2.3 2.3-2.5 3.2-.2.9.5 2 1.6 3.3 1.1 1.3 2 1.7 2.5 1.6.5-.1 1-.5 3.1-2.5 2.1-2.1 2.3-2.6 2.5-3.3.2-.7-.3-1.7-1-2.6-.7-.9-1.6-2.2-2.7-2.3-1-.1-2.1 1.2-3.5 2.6z"/>
        <path class="st2" d="M55.4 16.8c-4.4-.2-8.7 1-22.5 14.8-9.4 9.4-14 15.8-13.6 21 .4 5.2 3.5 9.6 10.2 16.3 6.7 6.7 13.5 11.3 18.8 10.4 5.3-.8 10.7-5.4 19.1-13.7 8.3-8.3 13.6-14.3 14.2-20.4.5-6.1-4.6-12.3-10.5-18.3-6-6.1-11.4-9.8-15.7-10.1zM41.8 51.7c.2.3 1.1 1.4 1.6 2 .4.6 2.4 2.9 2.7 3.4.4.5.6.6.5 1.2-.1 1-1.4 2.1-2 2.6-.6.5-1 .4-1.2.1-.2-.3-1-1-1.5-1.5s-.8-.3-1-.1L39.3 61c.2.4 1.1 1.3 1.6 1.8s.4.8.3 1.2c-.4 1-1.7 2.2-2.2 2.5-.5.3-.8.1-1-.1L32.7 61c-.6-.6-.7-.8-.3-1.6.4-.8 1.3-1.6 1.9-2.1.6-.5.9-.3 1.2 0 .3.3.8.8 1.3 1.2.5.3.7.2 1 0 .3-.2 2.1-2.1 2.1-2.1-.1-.4-.8-1.3-1.2-1.7-.3-.4-.4-.8-.1-1.3.5-1 1.6-1.9 2.1-2.3.5-.4.9.2 1.1.6zm17.9-5.1c-.2 1.7-1.7 3.4-4 5.8-2.4 2.4-3.9 3.7-5.4 3.9-1.5.2-3.4-1.1-5.3-3s-2.8-3.2-2.9-4.6c-.1-1.5 1.2-3.3 3.8-5.9 3.9-3.9 5.1-4.3 6.4-4.2 1.2.1 2.8 1.1 4.5 2.8 1.6 1.7 3 3.5 2.9 5.2zm4.1-15.2c-.1.3-.2.7-.4.9-.2.2-.9 1-1.4 1.4.4 1 2.8 4 3.2 4.6.5.6.5.7.3 1.3-.1.6-1.1 1.7-1.6 2-.4.3-.7.3-1.1-.1-.4-.4-2.9-2.9-3.8-3.7-.6-.5-.9-.3-1.1-.1l-.9 1.1c-.3.3-.6.5-.8.5-.6-.1-1.2-.9-1.3-1.3-.1-.4-.1-1 .3-1.4l6.6-6.6c.5-.5.8-.5 1.5.1.6.6.6 1 .5 1.3z"/>
    </g>
</svg>
