<?xml version="1.0" encoding="UTF-8"?><!DOCTYPE svg PUBLIC "-//W3C//DTD SVG 1.1//EN" "http://www.w3.org/Graphics/SVG/1.1/DTD/svg11.dtd"><svg xmlns="http://www.w3.org/2000/svg"><defs>
        <style>
            .cls-1{fill:#fff;stroke:#fff;stroke-width:.5px;fill-rule:evenodd}
        </style>
    
        <style>
            .cls-1{fill:#b8161e;fill-rule:evenodd}
        </style>
    </defs><symbol id="icon-arrow" viewBox="0 0 18.88 13.41">
    
    <path id="Forma_1" data-name="Forma 1" class="cls-1" d="M1420.68 4881.24a.64.64 0 0 0-.92 0 .658.658 0 0 0 0 .92l4.69 4.69h-15.48a.649.649 0 0 0-.65.65.657.657 0 0 0 .65.66h15.48l-4.69 4.68a.658.658 0 0 0 0 .92.64.64 0 0 0 .92 0l5.81-5.8a.646.646 0 0 0 0-.91z" transform="translate(-1408.06 -4880.81)"/>
</symbol><symbol id="icon-percent" viewBox="0 0 66.281 65.25">
    
    <path id="Forma_1" data-name="Forma 1" class="cls-1" d="M793.237 478.4l-.1-2.79a1.646 1.646 0 0 1 .879-1.524l2.464-1.311a3.53 3.53 0 0 0 1.616-4.45l-1.047-2.592a1.652 1.652 0 0 1 .3-1.734l1.864-2.075a3.538 3.538 0 0 0-.009-4.738l-1.871-2.082a1.658 1.658 0 0 1-.309-1.735l1.038-2.588a3.556 3.556 0 0 0-1.632-4.456l-2.469-1.32a1.662 1.662 0 0 1-.885-1.527l.087-2.789a3.561 3.561 0 0 0-3.058-3.636l-2.769-.4a1.667 1.667 0 0 1-1.354-1.134l-.874-2.655a3.566 3.566 0 0 0-4.108-2.372l-2.735.571a1.668 1.668 0 0 1-1.659-.606l-1.73-2.2a3.559 3.559 0 0 0-4.677-.831l-2.372 1.47a1.661 1.661 0 0 1-1.764 0l-2.377-1.479a3.551 3.551 0 0 0-4.674.814l-1.722 2.194a1.657 1.657 0 0 1-1.657.6l-2.737-.58a3.538 3.538 0 0 0-4.108 2.362l-.864 2.652a1.652 1.652 0 0 1-1.35 1.129l-2.768.389a3.53 3.53 0 0 0-3.045 3.625l.1 2.79a1.651 1.651 0 0 1-.88 1.524l-2.464 1.31a3.531 3.531 0 0 0-1.616 4.45l1.047 2.593a1.648 1.648 0 0 1-.3 1.733l-1.863 2.075a3.538 3.538 0 0 0 .008 4.739l1.871 2.081a1.658 1.658 0 0 1 .31 1.735l-1.038 2.589a3.556 3.556 0 0 0 1.631 4.456l2.469 1.319a1.663 1.663 0 0 1 .885 1.527l-.087 2.79a3.562 3.562 0 0 0 3.058 3.636l2.769.4a1.667 1.667 0 0 1 1.354 1.135l.874 2.654A3.564 3.564 0 0 0 753 488.51l2.735-.57a1.665 1.665 0 0 1 1.659.605l1.73 2.2a3.561 3.561 0 0 0 4.677.831l2.372-1.47a1.659 1.659 0 0 1 1.764 0l2.377 1.479a3.55 3.55 0 0 0 4.674-.815l1.722-2.193a1.656 1.656 0 0 1 1.657-.6l2.738.58a3.537 3.537 0 0 0 4.107-2.362l.864-2.651a1.653 1.653 0 0 1 1.35-1.13l2.768-.389a3.53 3.53 0 0 0 3.043-3.625zm-3.315 1.761l-2.767.389a3.513 3.513 0 0 0-2.874 2.405l-.864 2.651a1.662 1.662 0 0 1-1.929 1.11l-2.738-.58a3.524 3.524 0 0 0-3.527 1.276l-1.722 2.193a1.668 1.668 0 0 1-2.2.383l-2.377-1.479a3.538 3.538 0 0 0-3.756-.007l-2.372 1.47a1.672 1.672 0 0 1-2.2-.39l-1.73-2.2a3.547 3.547 0 0 0-3.531-1.289l-2.736.57a1.675 1.675 0 0 1-1.933-1.116l-.866-2.647a3.552 3.552 0 0 0-1.6-1.972 3.594 3.594 0 0 0-1.285-.443l-2.769-.4a1.674 1.674 0 0 1-1.437-1.708l.087-2.789a3.543 3.543 0 0 0-1.884-3.251l-2.468-1.319a1.669 1.669 0 0 1-.767-2.094l1.038-2.588a3.526 3.526 0 0 0-.659-3.693l-1.871-2.082a1.663 1.663 0 0 1 0-2.226l1.864-2.075a3.515 3.515 0 0 0 .645-3.691l-1.047-2.592a1.658 1.658 0 0 1 .759-2.09l2.464-1.311a3.509 3.509 0 0 0 1.873-3.243l-.1-2.791a1.659 1.659 0 0 1 1.431-1.7l2.767-.389a3.515 3.515 0 0 0 2.874-2.405l.864-2.651a1.662 1.662 0 0 1 1.929-1.11l2.738.58a3.524 3.524 0 0 0 3.527-1.276l1.722-2.193a1.669 1.669 0 0 1 2.2-.383l2.377 1.479a3.544 3.544 0 0 0 3.756.007l2.372-1.471a1.672 1.672 0 0 1 2.2.391l1.73 2.2a3.548 3.548 0 0 0 3.532 1.289l2.735-.57a1.673 1.673 0 0 1 1.933 1.116l.874 2.655a3.55 3.55 0 0 0 2.882 2.415l2.769.4a1.673 1.673 0 0 1 1.437 1.707l-.087 2.79a3.541 3.541 0 0 0 1.883 3.25l2.469 1.32a1.668 1.668 0 0 1 .767 2.093l-1.038 2.589a3.527 3.527 0 0 0 .659 3.693l1.871 2.082a1.663 1.663 0 0 1 0 2.226l-1.864 2.074a3.515 3.515 0 0 0-.645 3.691l1.047 2.592a1.659 1.659 0 0 1-.759 2.091l-2.464 1.31a3.512 3.512 0 0 0-1.873 3.244l.1 2.79a1.658 1.658 0 0 1-1.436 1.697zm-3.186-6.553a.943.943 0 0 0-1.322.166 23.314 23.314 0 0 1-39.985-23.091.943.943 0 0 0-1.745-.716 25.2 25.2 0 0 0 43.223 24.961.941.941 0 0 0-.171-1.316zm3.587-4.606a25.2 25.2 0 0 0-43.223-24.947.941.941 0 0 0 .17 1.32 1 1 0 0 0 .107.072.941.941 0 0 0 1.215-.237 23.314 23.314 0 0 1 39.984 23.082.943.943 0 0 0 1.747.714zm-15.979-6.617c-2.5-1.442-4.993-1.462-6.67 1.445l-2.76 4.78c-1.678 2.907-.412 5.059 2.084 6.5 2.465 1.423 4.993 1.462 6.671-1.445l2.759-4.78c1.678-2.903.38-5.073-2.084-6.496zm-3.01 9.932c-.764 1.325-1.878 1.456-3.142.726a2.009 2.009 0 0 1-.911-3.066l2.759-4.781a2.01 2.01 0 0 1 3.111-.744c1.264.73 1.707 1.761.942 3.085zm-4.983-29.19c-2.5-1.442-4.993-1.462-6.671 1.445l-2.759 4.78c-1.678 2.907-.412 5.059 2.085 6.5 2.464 1.423 4.992 1.462 6.67-1.444l2.759-4.781c1.678-2.902.38-5.073-2.084-6.496zm-3.01 9.932c-.764 1.325-1.878 1.456-3.142.726a2.009 2.009 0 0 1-.911-3.066l2.759-4.781a2.01 2.01 0 0 1 3.111-.744c1.264.73 1.707 1.761.943 3.085zm16.8-3.646a1.173 1.173 0 0 0-1.308.02l-25.6 16.867a1.052 1.052 0 0 0-.409.41 1.445 1.445 0 0 0 .575 1.925 1.418 1.418 0 0 0 1.456.023l25.547-16.77a1.458 1.458 0 0 0-.257-2.471z" transform="translate(-733.875 -426.875)"/>
</symbol><symbol id="icon-rocket" viewBox="0 0 322 327">
    <style>
        .st0{opacity:.2;enable-background:new}
    </style>
    <path id="rocket.svg" class="st0" d="M223.2 56.8l-24.1 6.7c-.3.1-.5.2-.7.5l-17.1 20.7c-.2.3-.3.6-.3.9 0 .1 0 .3.1.4.1.5.5.8 1 1l24.3 7.1c-.3 4.8.9 9.5 3.5 13.5l-7.7 9.4c-.5.6-.4 1.5.1 2l7.3 7c.6.6 1.5.5 2.1-.1l8.5-9.3c2.2.8 7.5 2.2 15.7.7l8.7 23.9c.3.8 1.1 1.2 1.9.9.2-.1.4-.2.5-.3l19.4-18.5c.2-.2.4-.5.4-.8l4.4-24.4c5.6-4.9 11-10.3 15.9-15.9 30.4-34.3 34.9-61.1 34.9-74 0-2.2-.1-4.5-.5-6.7-.1-.6-.6-1-1.2-1.1-1.5-.3-37.5-5.8-84.4 41.2-4.5 4.8-8.7 9.9-12.7 15.2zm26.2 2.2c0-8.2 6.7-14.7 14.8-14.7 8.2 0 14.7 6.7 14.7 14.8 0 8.1-6.6 14.7-14.8 14.7-8.1 0-14.7-6.6-14.7-14.8zM202 131.7L30.1 304.2c-1 1-2.7 1-3.7 0l-1.9-1.9c-1-1-1-2.7 0-3.8L196.4 126c1-1 2.7-1 3.7 0l1.9 1.9c1 1 1 2.7 0 3.8zm-2.5 21.9L27.7 326.2c-1 1-2.7 1-3.7 0l-1.9-1.9c-1-1-1-2.7 0-3.8L193.9 148c1-1 2.7-1 3.7 0l1.9 1.9c1 1 1 2.7 0 3.7zm-21.3-18.5L6.4 307.7c-1 1-2.7 1-3.7 0l-1.9-1.9c-1-1-1-2.7 0-3.8l171.8-172.6c1-1 2.7-1 3.7 0l1.9 1.9c1 1.1 1 2.7 0 3.8z"/>
</symbol></svg>